STARTFONT 2.1
COMMENT
COMMENT Converted from OpenType font "TIC-80 wide font.ttf" by "otf2bdf 3.0".
COMMENT
FONT -FreeType-TIC 80 wide font-Medium-R-Normal--6-60-75-75-P-47-ISO10646-1
SIZE 6 75 75
FONTBOUNDINGBOX 5 7 0 0
STARTPROPERTIES 19
FOUNDRY "FreeType"
FAMILY_NAME "TIC 80 wide font"
WEIGHT_NAME "Medium"
SLANT "R"
SETWIDTH_NAME "Normal"
ADD_STYLE_NAME ""
PIXEL_SIZE 6
POINT_SIZE 60
RESOLUTION_X 75
RESOLUTION_Y 75
SPACING "P"
AVERAGE_WIDTH 47
CHARSET_REGISTRY "ISO10646"
CHARSET_ENCODING "1"
FONT_ASCENT 6
FONT_DESCENT 0
COPYRIGHT "Copyright nesbox 2017"
_OTF_FONTFILE "TIC-80 wide font.ttf"
_OTF_PSNAME "TIC-80-wide-font"
ENDPROPERTIES
CHARS 99
STARTCHAR 0020
ENCODING 32
SWIDTH 960 0
DWIDTH 6 0
BBX 0 0 0 0
BITMAP
ENDCHAR
STARTCHAR 0021
ENCODING 33
SWIDTH 960 0
DWIDTH 6 0
BBX 2 5 1 2
BITMAP
C0
C0
C0
00
C0
ENDCHAR
STARTCHAR 0022
ENCODING 34
SWIDTH 960 0
DWIDTH 6 0
BBX 3 2 1 5
BITMAP
A0
A0
ENDCHAR
STARTCHAR 0023
ENCODING 35
SWIDTH 960 0
DWIDTH 6 0
BBX 5 5 0 2
BITMAP
50
F8
50
F8
50
ENDCHAR
STARTCHAR 0024
ENCODING 36
SWIDTH 960 0
DWIDTH 6 0
BBX 5 5 0 2
BITMAP
78
A0
70
28
F0
ENDCHAR
STARTCHAR 0025
ENCODING 37
SWIDTH 960 0
DWIDTH 6 0
BBX 5 5 0 2
BITMAP
88
10
20
40
88
ENDCHAR
STARTCHAR 0026
ENCODING 38
SWIDTH 960 0
DWIDTH 6 0
BBX 5 5 0 2
BITMAP
40
A0
68
90
68
ENDCHAR
STARTCHAR 0027
ENCODING 39
SWIDTH 960 0
DWIDTH 6 0
BBX 2 2 1 5
BITMAP
40
80
ENDCHAR
STARTCHAR 0028
ENCODING 40
SWIDTH 960 0
DWIDTH 6 0
BBX 2 5 1 2
BITMAP
40
80
80
80
40
ENDCHAR
STARTCHAR 0029
ENCODING 41
SWIDTH 960 0
DWIDTH 6 0
BBX 2 5 1 2
BITMAP
80
40
40
40
80
ENDCHAR
STARTCHAR 002A
ENCODING 42
SWIDTH 960 0
DWIDTH 6 0
BBX 5 5 0 2
BITMAP
20
A8
70
A8
20
ENDCHAR
STARTCHAR 002B
ENCODING 43
SWIDTH 960 0
DWIDTH 6 0
BBX 3 3 1 3
BITMAP
40
E0
40
ENDCHAR
STARTCHAR 002C
ENCODING 44
SWIDTH 960 0
DWIDTH 6 0
BBX 2 3 1 1
BITMAP
C0
40
80
ENDCHAR
STARTCHAR 002D
ENCODING 45
SWIDTH 960 0
DWIDTH 6 0
BBX 3 1 1 4
BITMAP
E0
ENDCHAR
STARTCHAR 002E
ENCODING 46
SWIDTH 960 0
DWIDTH 6 0
BBX 2 2 1 2
BITMAP
C0
C0
ENDCHAR
STARTCHAR 002F
ENCODING 47
SWIDTH 960 0
DWIDTH 6 0
BBX 5 5 0 2
BITMAP
08
10
20
40
80
ENDCHAR
STARTCHAR 0030
ENCODING 48
SWIDTH 960 0
DWIDTH 6 0
BBX 5 5 0 2
BITMAP
70
C8
C8
C8
70
ENDCHAR
STARTCHAR 0031
ENCODING 49
SWIDTH 960 0
DWIDTH 6 0
BBX 4 5 1 2
BITMAP
60
E0
60
60
F0
ENDCHAR
STARTCHAR 0032
ENCODING 50
SWIDTH 960 0
DWIDTH 6 0
BBX 5 5 0 2
BITMAP
F0
18
70
C0
F8
ENDCHAR
STARTCHAR 0033
ENCODING 51
SWIDTH 960 0
DWIDTH 6 0
BBX 5 5 0 2
BITMAP
F8
18
30
98
70
ENDCHAR
STARTCHAR 0034
ENCODING 52
SWIDTH 960 0
DWIDTH 6 0
BBX 5 5 0 2
BITMAP
30
70
D0
F8
10
ENDCHAR
STARTCHAR 0035
ENCODING 53
SWIDTH 960 0
DWIDTH 6 0
BBX 5 5 0 2
BITMAP
F8
C0
F0
18
F0
ENDCHAR
STARTCHAR 0036
ENCODING 54
SWIDTH 960 0
DWIDTH 6 0
BBX 5 5 0 2
BITMAP
70
C0
F0
C8
70
ENDCHAR
STARTCHAR 0037
ENCODING 55
SWIDTH 960 0
DWIDTH 6 0
BBX 5 5 0 2
BITMAP
F8
18
30
60
C0
ENDCHAR
STARTCHAR 0038
ENCODING 56
SWIDTH 960 0
DWIDTH 6 0
BBX 5 5 0 2
BITMAP
70
C8
70
C8
70
ENDCHAR
STARTCHAR 0039
ENCODING 57
SWIDTH 960 0
DWIDTH 6 0
BBX 5 5 0 2
BITMAP
70
C8
78
08
70
ENDCHAR
STARTCHAR 003A
ENCODING 58
SWIDTH 960 0
DWIDTH 6 0
BBX 2 5 1 2
BITMAP
C0
C0
00
C0
C0
ENDCHAR
STARTCHAR 003B
ENCODING 59
SWIDTH 960 0
DWIDTH 6 0
BBX 2 6 1 1
BITMAP
C0
C0
00
C0
40
80
ENDCHAR
STARTCHAR 003C
ENCODING 60
SWIDTH 960 0
DWIDTH 6 0
BBX 3 5 1 2
BITMAP
20
40
80
40
20
ENDCHAR
STARTCHAR 003D
ENCODING 61
SWIDTH 960 0
DWIDTH 6 0
BBX 3 3 1 3
BITMAP
E0
00
E0
ENDCHAR
STARTCHAR 003E
ENCODING 62
SWIDTH 960 0
DWIDTH 6 0
BBX 3 5 1 2
BITMAP
80
40
20
40
80
ENDCHAR
STARTCHAR 003F
ENCODING 63
SWIDTH 960 0
DWIDTH 6 0
BBX 4 5 1 2
BITMAP
F0
30
60
00
60
ENDCHAR
STARTCHAR 0040
ENCODING 64
SWIDTH 960 0
DWIDTH 6 0
BBX 5 5 0 2
BITMAP
70
A8
B8
80
70
ENDCHAR
STARTCHAR 0041
ENCODING 65
SWIDTH 960 0
DWIDTH 6 0
BBX 5 5 0 2
BITMAP
70
C8
C8
F8
C8
ENDCHAR
STARTCHAR 0042
ENCODING 66
SWIDTH 960 0
DWIDTH 6 0
BBX 5 5 0 2
BITMAP
F0
C8
F0
C8
F0
ENDCHAR
STARTCHAR 0043
ENCODING 67
SWIDTH 960 0
DWIDTH 6 0
BBX 5 5 0 2
BITMAP
70
C8
C0
C8
70
ENDCHAR
STARTCHAR 0044
ENCODING 68
SWIDTH 960 0
DWIDTH 6 0
BBX 5 5 0 2
BITMAP
F0
C8
C8
C8
F0
ENDCHAR
STARTCHAR 0045
ENCODING 69
SWIDTH 960 0
DWIDTH 6 0
BBX 5 5 0 2
BITMAP
F8
C0
F0
C0
F8
ENDCHAR
STARTCHAR 0046
ENCODING 70
SWIDTH 960 0
DWIDTH 6 0
BBX 5 5 0 2
BITMAP
F8
C0
F0
C0
C0
ENDCHAR
STARTCHAR 0047
ENCODING 71
SWIDTH 960 0
DWIDTH 6 0
BBX 5 5 0 2
BITMAP
78
C0
D8
C8
78
ENDCHAR
STARTCHAR 0048
ENCODING 72
SWIDTH 960 0
DWIDTH 6 0
BBX 5 5 0 2
BITMAP
C8
C8
F8
C8
C8
ENDCHAR
STARTCHAR 0049
ENCODING 73
SWIDTH 960 0
DWIDTH 6 0
BBX 4 5 1 2
BITMAP
F0
60
60
60
F0
ENDCHAR
STARTCHAR 004A
ENCODING 74
SWIDTH 960 0
DWIDTH 6 0
BBX 5 5 0 2
BITMAP
F8
18
18
D8
70
ENDCHAR
STARTCHAR 004B
ENCODING 75
SWIDTH 960 0
DWIDTH 6 0
BBX 5 5 0 2
BITMAP
C8
D0
E0
D0
C8
ENDCHAR
STARTCHAR 004C
ENCODING 76
SWIDTH 960 0
DWIDTH 6 0
BBX 5 5 0 2
BITMAP
C0
C0
C0
C0
F8
ENDCHAR
STARTCHAR 004D
ENCODING 77
SWIDTH 960 0
DWIDTH 6 0
BBX 5 5 0 2
BITMAP
D8
D8
F8
A8
88
ENDCHAR
STARTCHAR 004E
ENCODING 78
SWIDTH 960 0
DWIDTH 6 0
BBX 5 5 0 2
BITMAP
C8
E8
F8
D8
C8
ENDCHAR
STARTCHAR 004F
ENCODING 79
SWIDTH 960 0
DWIDTH 6 0
BBX 5 5 0 2
BITMAP
70
C8
C8
C8
70
ENDCHAR
STARTCHAR 0050
ENCODING 80
SWIDTH 960 0
DWIDTH 6 0
BBX 5 5 0 2
BITMAP
F0
C8
C8
F0
C0
ENDCHAR
STARTCHAR 0051
ENCODING 81
SWIDTH 960 0
DWIDTH 6 0
BBX 5 6 0 1
BITMAP
70
C8
C8
C8
70
08
ENDCHAR
STARTCHAR 0052
ENCODING 82
SWIDTH 960 0
DWIDTH 6 0
BBX 5 5 0 2
BITMAP
F0
C8
C8
F0
C8
ENDCHAR
STARTCHAR 0053
ENCODING 83
SWIDTH 960 0
DWIDTH 6 0
BBX 5 5 0 2
BITMAP
78
E0
70
38
F0
ENDCHAR
STARTCHAR 0054
ENCODING 84
SWIDTH 960 0
DWIDTH 6 0
BBX 4 5 1 2
BITMAP
F0
60
60
60
60
ENDCHAR
STARTCHAR 0055
ENCODING 85
SWIDTH 960 0
DWIDTH 6 0
BBX 5 5 0 2
BITMAP
C8
C8
C8
C8
70
ENDCHAR
STARTCHAR 0056
ENCODING 86
SWIDTH 960 0
DWIDTH 6 0
BBX 5 5 0 2
BITMAP
C8
C8
C8
70
20
ENDCHAR
STARTCHAR 0057
ENCODING 87
SWIDTH 960 0
DWIDTH 6 0
BBX 5 5 0 2
BITMAP
88
A8
F8
F8
D8
ENDCHAR
STARTCHAR 0058
ENCODING 88
SWIDTH 960 0
DWIDTH 6 0
BBX 5 5 0 2
BITMAP
C8
C8
70
C8
C8
ENDCHAR
STARTCHAR 0059
ENCODING 89
SWIDTH 960 0
DWIDTH 6 0
BBX 4 5 1 2
BITMAP
D0
D0
F0
60
60
ENDCHAR
STARTCHAR 005A
ENCODING 90
SWIDTH 960 0
DWIDTH 6 0
BBX 5 5 0 2
BITMAP
F8
30
60
C0
F8
ENDCHAR
STARTCHAR 005B
ENCODING 91
SWIDTH 960 0
DWIDTH 6 0
BBX 2 5 1 2
BITMAP
C0
80
80
80
C0
ENDCHAR
STARTCHAR 005C
ENCODING 92
SWIDTH 960 0
DWIDTH 6 0
BBX 5 5 0 2
BITMAP
80
40
20
10
08
ENDCHAR
STARTCHAR 005D
ENCODING 93
SWIDTH 960 0
DWIDTH 6 0
BBX 2 5 1 2
BITMAP
C0
40
40
40
C0
ENDCHAR
STARTCHAR 005E
ENCODING 94
SWIDTH 960 0
DWIDTH 6 0
BBX 5 3 0 4
BITMAP
20
50
88
ENDCHAR
STARTCHAR 005F
ENCODING 95
SWIDTH 960 0
DWIDTH 6 0
BBX 4 1 1 2
BITMAP
F0
ENDCHAR
STARTCHAR 0060
ENCODING 96
SWIDTH 960 0
DWIDTH 6 0
BBX 2 2 1 5
BITMAP
80
40
ENDCHAR
STARTCHAR 0061
ENCODING 97
SWIDTH 960 0
DWIDTH 6 0
BBX 5 4 0 2
BITMAP
78
98
98
78
ENDCHAR
STARTCHAR 0062
ENCODING 98
SWIDTH 960 0
DWIDTH 6 0
BBX 5 5 0 2
BITMAP
C0
F0
C8
C8
F0
ENDCHAR
STARTCHAR 0063
ENCODING 99
SWIDTH 960 0
DWIDTH 6 0
BBX 5 4 0 2
BITMAP
78
E0
E0
78
ENDCHAR
STARTCHAR 0064
ENCODING 100
SWIDTH 960 0
DWIDTH 6 0
BBX 5 5 0 2
BITMAP
18
78
98
98
78
ENDCHAR
STARTCHAR 0065
ENCODING 101
SWIDTH 960 0
DWIDTH 6 0
BBX 5 4 0 2
BITMAP
70
D8
E0
70
ENDCHAR
STARTCHAR 0066
ENCODING 102
SWIDTH 960 0
DWIDTH 6 0
BBX 5 5 0 2
BITMAP
38
60
F8
60
60
ENDCHAR
STARTCHAR 0067
ENCODING 103
SWIDTH 960 0
DWIDTH 6 0
BBX 5 5 0 1
BITMAP
70
98
F8
18
70
ENDCHAR
STARTCHAR 0068
ENCODING 104
SWIDTH 960 0
DWIDTH 6 0
BBX 5 5 0 2
BITMAP
C0
F0
C8
C8
C8
ENDCHAR
STARTCHAR 0069
ENCODING 105
SWIDTH 960 0
DWIDTH 6 0
BBX 4 5 1 2
BITMAP
60
00
E0
60
F0
ENDCHAR
STARTCHAR 006A
ENCODING 106
SWIDTH 960 0
DWIDTH 6 0
BBX 5 6 0 1
BITMAP
18
00
18
18
98
70
ENDCHAR
STARTCHAR 006B
ENCODING 107
SWIDTH 960 0
DWIDTH 6 0
BBX 5 5 0 2
BITMAP
C0
C8
F0
C8
C8
ENDCHAR
STARTCHAR 006C
ENCODING 108
SWIDTH 960 0
DWIDTH 6 0
BBX 4 5 1 2
BITMAP
C0
C0
C0
C0
70
ENDCHAR
STARTCHAR 006D
ENCODING 109
SWIDTH 960 0
DWIDTH 6 0
BBX 5 4 0 2
BITMAP
D0
F8
A8
A8
ENDCHAR
STARTCHAR 006E
ENCODING 110
SWIDTH 960 0
DWIDTH 6 0
BBX 5 4 0 2
BITMAP
F0
C8
C8
C8
ENDCHAR
STARTCHAR 006F
ENCODING 111
SWIDTH 960 0
DWIDTH 6 0
BBX 5 4 0 2
BITMAP
70
C8
C8
70
ENDCHAR
STARTCHAR 0070
ENCODING 112
SWIDTH 960 0
DWIDTH 6 0
BBX 5 5 0 1
BITMAP
F0
C8
C8
F0
C0
ENDCHAR
STARTCHAR 0071
ENCODING 113
SWIDTH 960 0
DWIDTH 6 0
BBX 5 5 0 1
BITMAP
78
98
98
78
18
ENDCHAR
STARTCHAR 0072
ENCODING 114
SWIDTH 960 0
DWIDTH 6 0
BBX 5 4 0 2
BITMAP
F0
C8
C0
C0
ENDCHAR
STARTCHAR 0073
ENCODING 115
SWIDTH 960 0
DWIDTH 6 0
BBX 5 4 0 2
BITMAP
78
E0
38
F0
ENDCHAR
STARTCHAR 0074
ENCODING 116
SWIDTH 960 0
DWIDTH 6 0
BBX 5 5 0 2
BITMAP
60
F8
60
60
38
ENDCHAR
STARTCHAR 0075
ENCODING 117
SWIDTH 960 0
DWIDTH 6 0
BBX 5 4 0 2
BITMAP
98
98
98
78
ENDCHAR
STARTCHAR 0076
ENCODING 118
SWIDTH 960 0
DWIDTH 6 0
BBX 5 4 0 2
BITMAP
C8
C8
D0
E0
ENDCHAR
STARTCHAR 0077
ENCODING 119
SWIDTH 960 0
DWIDTH 6 0
BBX 5 4 0 2
BITMAP
88
A8
F8
D8
ENDCHAR
STARTCHAR 0078
ENCODING 120
SWIDTH 960 0
DWIDTH 6 0
BBX 5 4 0 2
BITMAP
D8
70
70
D8
ENDCHAR
STARTCHAR 0079
ENCODING 121
SWIDTH 960 0
DWIDTH 6 0
BBX 5 5 0 1
BITMAP
98
98
78
18
70
ENDCHAR
STARTCHAR 007A
ENCODING 122
SWIDTH 960 0
DWIDTH 6 0
BBX 5 4 0 2
BITMAP
F8
30
60
F8
ENDCHAR
STARTCHAR 007B
ENCODING 123
SWIDTH 960 0
DWIDTH 6 0
BBX 3 5 1 2
BITMAP
60
40
C0
40
60
ENDCHAR
STARTCHAR 007C
ENCODING 124
SWIDTH 960 0
DWIDTH 6 0
BBX 1 5 2 2
BITMAP
80
80
80
80
80
ENDCHAR
STARTCHAR 007D
ENCODING 125
SWIDTH 960 0
DWIDTH 6 0
BBX 3 5 1 2
BITMAP
C0
40
60
40
C0
ENDCHAR
STARTCHAR 007E
ENCODING 126
SWIDTH 960 0
DWIDTH 6 0
BBX 4 2 1 4
BITMAP
50
A0
ENDCHAR
STARTCHAR 2018
ENCODING 8216
SWIDTH 960 0
DWIDTH 6 0
BBX 2 2 1 5
BITMAP
40
80
ENDCHAR
STARTCHAR 2019
ENCODING 8217
SWIDTH 960 0
DWIDTH 6 0
BBX 2 2 1 5
BITMAP
40
80
ENDCHAR
STARTCHAR 201C
ENCODING 8220
SWIDTH 960 0
DWIDTH 6 0
BBX 3 2 1 5
BITMAP
A0
A0
ENDCHAR
STARTCHAR 201D
ENCODING 8221
SWIDTH 960 0
DWIDTH 6 0
BBX 3 2 1 5
BITMAP
A0
A0
ENDCHAR
ENDFONT
